<?xml version="1.0" encoding="UTF-8" standalone="no"?>
<!-- Created with Inkscape (http://www.inkscape.org/) -->

<svg
   width="210mm"
   height="297mm"
   viewBox="0 0 210 297"
   version="1.1"
   id="svg15001"
   inkscape:version="1.2.2 (b0a84865, 2022-12-01)"
   sodipodi:docname="1H.svg"
   xmlns:inkscape="http://www.inkscape.org/namespaces/inkscape"
   xmlns:sodipodi="http://sodipodi.sourceforge.net/DTD/sodipodi-0.dtd"
   xmlns="http://www.w3.org/2000/svg"
   xmlns:svg="http://www.w3.org/2000/svg">
  <sodipodi:namedview
     id="namedview15003"
     pagecolor="#ffffff"
     bordercolor="#000000"
     borderopacity="0.25"
     inkscape:showpageshadow="2"
     inkscape:pageopacity="0.0"
     inkscape:pagecheckerboard="0"
     inkscape:deskcolor="#d1d1d1"
     inkscape:document-units="mm"
     showgrid="false"
     inkscape:zoom="0.78127806"
     inkscape:cx="250.23101"
     inkscape:cy="776.9321"
     inkscape:window-width="1390"
     inkscape:window-height="938"
     inkscape:window-x="0"
     inkscape:window-y="25"
     inkscape:window-maximized="0"
     inkscape:current-layer="layer1" />
  <defs
     id="defs14998" />
  <g
     inkscape:label="Layer 1"
     inkscape:groupmode="layer"
     id="layer1">
    <rect
       width="94.985413"
       height="142.61041"
       rx="7.9226832"
       x="55.119602"
       y="54.335609"
       id="rect26"
       style="fill:#ffffff;stroke:#000000;stroke-width:0.264583" />
    <g
       id="g28"
       style="fill:#ff5555"
       transform="matrix(0.26458333,0,0,0.26458333,47.557896,530.84505)">
      <path
         d="m 50,-1767.64 v 5 h 7.6 v 45 h 5 v -45 H 70 v -5 h -7.4 -5 z"
         id="path30" />
      <path
         d="m 350,-1287.64 v -5 h 7.6 v -45 h 5 v 45 h 7.4 v 5 h -7.4 -5 z"
         id="path32" />
      <path
         d="m 210,-1547.64 c 0,0 1.82,-11.153 5.333,-14.667 3.514,-3.514 9.698,-5.333 14.667,-5.333 4.969,0 11.153,1.82 14.667,5.333 3.514,3.514 5.333,9.698 5.333,14.667 0,4.969 -2.667,12 -5.333,14.667 -2.667,2.667 -5.333,4 -8,6.667 -2.667,2.667 -4,2.667 -6.667,5.333 -2.667,2.667 -4,4 -6.667,6.667 -2.667,2.667 -6.667,8 -9.333,13.333 -2.667,5.333 -4,13.333 -4,13.333 0,0 -1.333,-8 -4,-13.333 -2.667,-5.333 -6.667,-10.667 -9.333,-13.333 -2.667,-2.667 -4,-4 -6.667,-6.667 -2.667,-2.667 -4,-2.667 -6.667,-5.333 -2.667,-2.667 -5.333,-4 -8,-6.667 -2.667,-2.667 -5.333,-9.698 -5.333,-14.667 0,-4.969 1.82,-11.153 5.333,-14.667 3.514,-3.514 9.698,-5.333 14.667,-5.333 4.969,0 11.153,1.82 14.667,5.333 3.514,3.514 5.333,14.667 5.333,14.667"
         id="path34" />
      <path
         d="m 60,-1700.14 c 0,0 0.682,-4.182 2,-5.5 1.318,-1.318 3.637,-2 5.5,-2 1.863,0 4.182,0.682 5.5,2 1.318,1.318 2,3.637 2,5.5 0,1.863 -1,4.5 -2,5.5 -1,1 -2,1.5 -3,2.5 -1,1 -1.5,1 -2.5,2 -1,1 -1.5,1.5 -2.5,2.5 -1,1 -2.5,3 -3.5,5 -1,2 -1.5,5 -1.5,5 0,0 -0.5,-3 -1.5,-5 -1,-2 -2.5,-4 -3.5,-5 -1,-1 -1.5,-1.5 -2.5,-2.5 -1,-1 -1.5,-1 -2.5,-2 -1,-1 -2,-1.5 -3,-2.5 -1,-1 -2,-3.637 -2,-5.5 0,-1.863 0.682,-4.182 2,-5.5 1.318,-1.318 3.637,-2 5.5,-2 1.863,0 4.182,0.682 5.5,2 1.318,1.318 2,5.5 2,5.5"
         id="path36" />
      <path
         d="m 360,-1355.14 c 0,0 0.682,4.182 2,5.5 1.318,1.318 3.637,2 5.5,2 1.863,0 4.182,-0.682 5.5,-2 1.318,-1.318 2,-3.637 2,-5.5 0,-1.863 -1,-4.5 -2,-5.5 -1,-1 -2,-1.5 -3,-2.5 -1,-1 -1.5,-1 -2.5,-2 -1,-1 -1.5,-1.5 -2.5,-2.5 -1,-1 -2.5,-3 -3.5,-5 -1,-2 -1.5,-5 -1.5,-5 0,0 -0.5,3 -1.5,5 -1,2 -2.5,4 -3.5,5 -1,1 -1.5,1.5 -2.5,2.5 -1,1 -1.5,1 -2.5,2 -1,1 -2,1.5 -3,2.5 -1,1 -2,3.637 -2,5.5 0,1.863 0.682,4.182 2,5.5 1.318,1.318 3.637,2 5.5,2 1.863,0 4.182,-0.682 5.5,-2 1.318,-1.318 2,-5.5 2,-5.5"
         id="path38" />
    </g>
  </g>
</svg>
