<?xml version="1.0" encoding="UTF-8" standalone="no"?>
<!-- Created with Inkscape (http://www.inkscape.org/) -->

<svg
   width="210mm"
   height="297mm"
   viewBox="0 0 210 297"
   version="1.1"
   id="svg16074"
   inkscape:version="1.2.2 (b0a84865, 2022-12-01)"
   sodipodi:docname="7H.svg"
   xmlns:inkscape="http://www.inkscape.org/namespaces/inkscape"
   xmlns:sodipodi="http://sodipodi.sourceforge.net/DTD/sodipodi-0.dtd"
   xmlns="http://www.w3.org/2000/svg"
   xmlns:svg="http://www.w3.org/2000/svg">
  <sodipodi:namedview
     id="namedview16076"
     pagecolor="#ffffff"
     bordercolor="#000000"
     borderopacity="0.25"
     inkscape:showpageshadow="2"
     inkscape:pageopacity="0.0"
     inkscape:pagecheckerboard="0"
     inkscape:deskcolor="#d1d1d1"
     inkscape:document-units="mm"
     showgrid="false"
     inkscape:zoom="0.78127806"
     inkscape:cx="396.78575"
     inkscape:cy="561.89982"
     inkscape:window-width="1390"
     inkscape:window-height="938"
     inkscape:window-x="0"
     inkscape:window-y="25"
     inkscape:window-maximized="0"
     inkscape:current-layer="layer1" />
  <defs
     id="defs16071" />
  <g
     inkscape:label="Layer 1"
     inkscape:groupmode="layer"
     id="layer1">
    <g
       transform="matrix(0.26458333,0,0,0.26458333,60.067132,-53.58892)"
       id="g544">
      <rect
         width="359"
         height="539"
         rx="29.944"
         x="0.5"
         y="512.85999"
         id="rect546"
         style="fill:#ffffff;stroke:#000000" />
      <g
         id="g548"
         style="fill:#ff5555">
        <path
           d="m 30,609.86 c 0,0 0.682,-4.182 2,-5.5 1.318,-1.318 3.637,-2 5.5,-2 1.863,0 4.182,0.682 5.5,2 1.318,1.318 2,3.637 2,5.5 0,1.863 -1,4.5 -2,5.5 -1,1 -2,1.5 -3,2.5 -1,1 -1.5,1 -2.5,2 -1,1 -1.5,1.5 -2.5,2.5 -1,1 -2.5,3 -3.5,5 -1,2 -1.5,5 -1.5,5 0,0 -0.5,-3 -1.5,-5 -1,-2 -2.5,-4 -3.5,-5 -1,-1 -1.5,-1.5 -2.5,-2.5 -1,-1 -1.5,-1 -2.5,-2 -1,-1 -2,-1.5 -3,-2.5 -1,-1 -2,-3.637 -2,-5.5 0,-1.863 0.682,-4.182 2,-5.5 1.318,-1.318 3.637,-2 5.5,-2 1.863,0 4.182,0.682 5.5,2 1.318,1.318 2,5.5 2,5.5"
           id="path550" />
        <path
           d="m 330,954.86 c 0,0 0.682,4.182 2,5.5 1.318,1.318 3.637,2 5.5,2 1.863,0 4.182,-0.682 5.5,-2 1.318,-1.318 2,-3.637 2,-5.5 0,-1.863 -1,-4.5 -2,-5.5 -1,-1 -2,-1.5 -3,-2.5 -1,-1 -1.5,-1 -2.5,-2 -1,-1 -1.5,-1.5 -2.5,-2.5 -1,-1 -2.5,-3 -3.5,-5 -1,-2 -1.5,-5 -1.5,-5 0,0 -0.5,3 -1.5,5 -1,2 -2.5,4 -3.5,5 -1,1 -1.5,1.5 -2.5,2.5 -1,1 -1.5,1 -2.5,2 -1,1 -2,1.5 -3,2.5 -1,1 -2,3.637 -2,5.5 0,1.863 0.682,4.182 2,5.5 1.318,1.318 3.637,2 5.5,2 1.863,0 4.182,-0.682 5.5,-2 1.318,-1.318 2,-5.5 2,-5.5"
           id="path552" />
        <path
           d="m 100,582.36 c 0,0 1.82,-11.153 5.333,-14.667 3.514,-3.514 9.698,-5.333 14.667,-5.333 4.969,0 11.153,1.82 14.667,5.333 3.514,3.514 5.333,9.698 5.333,14.667 0,4.969 -2.667,12 -5.333,14.667 -2.667,2.667 -5.333,4 -8,6.667 -2.667,2.667 -4,2.667 -6.667,5.333 -2.667,2.667 -4,4 -6.667,6.667 -2.667,2.667 -6.667,8 -9.333,13.333 -2.667,5.333 -4,13.333 -4,13.333 0,0 -1.333,-8 -4,-13.333 -2.667,-5.333 -6.667,-10.667 -9.333,-13.333 -2.667,-2.667 -4,-4 -6.667,-6.667 -2.667,-2.667 -4,-2.667 -6.667,-5.333 -2.667,-2.667 -5.333,-4 -8,-6.667 C 62.666,594.36 60,587.329 60,582.36 c 0,-4.969 1.82,-11.153 5.333,-14.667 3.514,-3.514 9.698,-5.333 14.667,-5.333 4.969,0 11.153,1.82 14.667,5.333 3.514,3.514 5.333,14.667 5.333,14.667"
           id="path554" />
        <path
           d="m 100,982.36 c 0,0 1.82,11.153 5.333,14.667 3.514,3.514 9.698,5.333 14.667,5.333 4.969,0 11.153,-1.82 14.667,-5.333 3.514,-3.514 5.333,-9.698 5.333,-14.667 0,-4.969 -2.667,-12 -5.333,-14.667 -2.667,-2.667 -5.333,-4 -8,-6.667 -2.667,-2.667 -4,-2.667 -6.667,-5.333 -2.667,-2.667 -4,-4 -6.667,-6.667 -2.667,-2.667 -6.667,-8 -9.333,-13.333 -2.667,-5.333 -4,-13.333 -4,-13.333 0,0 -1.333,8 -4,13.333 -2.667,5.333 -6.667,10.667 -9.333,13.333 -2.667,2.667 -4,4 -6.667,6.667 -2.667,2.667 -4,2.667 -6.667,5.333 -2.667,2.667 -5.333,4 -8,6.667 C 62.666,970.36 60,977.391 60,982.36 c 0,4.969 1.82,11.153 5.333,14.667 3.514,3.514 9.698,5.333 14.667,5.333 4.969,0 11.153,-1.82 14.667,-5.333 C 98.181,993.513 100,982.36 100,982.36"
           id="path556" />
        <path
           d="m 260,982.36 c 0,0 1.82,11.153 5.333,14.667 3.514,3.514 9.698,5.333 14.667,5.333 4.969,0 11.153,-1.82 14.667,-5.333 3.514,-3.514 5.333,-9.698 5.333,-14.667 0,-4.969 -2.667,-12 -5.333,-14.667 -2.667,-2.667 -5.333,-4 -8,-6.667 -2.667,-2.667 -4,-2.667 -6.667,-5.333 -2.667,-2.667 -4,-4 -6.667,-6.667 -2.667,-2.667 -6.667,-8 -9.333,-13.333 -2.667,-5.333 -4,-13.333 -4,-13.333 0,0 -1.333,8 -4,13.333 -2.667,5.333 -6.667,10.667 -9.333,13.333 -2.667,2.667 -4,4 -6.667,6.667 -2.667,2.667 -4,2.667 -6.667,5.333 -2.667,2.667 -5.333,4 -8,6.667 -2.667,2.667 -5.333,9.698 -5.333,14.667 0,4.969 1.82,11.153 5.333,14.667 3.514,3.514 9.698,5.333 14.667,5.333 4.969,0 11.153,-1.82 14.667,-5.333 C 258.181,993.513 260,982.36 260,982.36"
           id="path558" />
        <path
           d="m 260,582.36 c 0,0 1.82,-11.153 5.333,-14.667 3.514,-3.514 9.698,-5.333 14.667,-5.333 4.969,0 11.153,1.82 14.667,5.333 3.514,3.514 5.333,9.698 5.333,14.667 0,4.969 -2.667,12 -5.333,14.667 -2.667,2.667 -5.333,4 -8,6.667 -2.667,2.667 -4,2.667 -6.667,5.333 -2.667,2.667 -4,4 -6.667,6.667 -2.667,2.667 -6.667,8 -9.333,13.333 -2.667,5.333 -4,13.333 -4,13.333 0,0 -1.333,-8 -4,-13.333 -2.667,-5.333 -6.667,-10.667 -9.333,-13.333 -2.667,-2.667 -4,-4 -6.667,-6.667 -2.667,-2.667 -4,-2.667 -6.667,-5.333 -2.667,-2.667 -5.333,-4 -8,-6.667 C 222.666,594.36 220,587.329 220,582.36 c 0,-4.969 1.82,-11.153 5.333,-14.667 3.514,-3.514 9.698,-5.333 14.667,-5.333 4.969,0 11.153,1.82 14.667,5.333 3.514,3.514 5.333,14.667 5.333,14.667"
           id="path560" />
        <path
           d="m 260,762.36 c 0,0 1.82,-11.153 5.333,-14.667 3.514,-3.514 9.698,-5.333 14.667,-5.333 4.969,0 11.153,1.82 14.667,5.333 3.514,3.514 5.333,9.698 5.333,14.667 0,4.969 -2.667,12 -5.333,14.667 -2.667,2.667 -5.333,4 -8,6.667 -2.667,2.667 -4,2.667 -6.667,5.333 -2.667,2.667 -4,4 -6.667,6.667 -2.667,2.667 -6.667,8 -9.333,13.333 -2.667,5.333 -4,13.333 -4,13.333 0,0 -1.333,-8 -4,-13.333 -2.667,-5.333 -6.667,-10.667 -9.333,-13.333 -2.667,-2.667 -4,-4 -6.667,-6.667 -2.667,-2.667 -4,-2.667 -6.667,-5.333 -2.667,-2.667 -5.333,-4 -8,-6.667 C 222.666,774.36 220,767.329 220,762.36 c 0,-4.969 1.82,-11.153 5.333,-14.667 3.514,-3.514 9.698,-5.333 14.667,-5.333 4.969,0 11.153,1.82 14.667,5.333 3.514,3.514 5.333,14.667 5.333,14.667"
           id="path562" />
        <path
           d="m 100,762.36 c 0,0 1.82,-11.153 5.333,-14.667 3.514,-3.514 9.698,-5.333 14.667,-5.333 4.969,0 11.153,1.82 14.667,5.333 3.514,3.514 5.333,9.698 5.333,14.667 0,4.969 -2.667,12 -5.333,14.667 -2.667,2.667 -5.333,4 -8,6.667 -2.667,2.667 -4,2.667 -6.667,5.333 -2.667,2.667 -4,4 -6.667,6.667 -2.667,2.667 -6.667,8 -9.333,13.333 -2.667,5.333 -4,13.333 -4,13.333 0,0 -1.333,-8 -4,-13.333 -2.667,-5.333 -6.667,-10.667 -9.333,-13.333 -2.667,-2.667 -4,-4 -6.667,-6.667 -2.667,-2.667 -4,-2.667 -6.667,-5.333 -2.667,-2.667 -5.333,-4 -8,-6.667 C 62.666,774.36 60,767.329 60,762.36 c 0,-4.969 1.82,-11.153 5.333,-14.667 3.514,-3.514 9.698,-5.333 14.667,-5.333 4.969,0 11.153,1.82 14.667,5.333 3.514,3.514 5.333,14.667 5.333,14.667"
           id="path564" />
        <path
           d="m 20,542.36 v 5 5 h 5 v -5 h 10 l -10,45 h 5 l 10,-45 v -5 H 20"
           id="path566" />
        <path
           d="m 340,1022.36 v -5 -5 h -5 v 5 h -10 l 10,-45 h -5 l -10,45 v 5 h 20"
           id="path568" />
        <path
           d="m 180,672.36 c 0,0 1.82,-11.153 5.333,-14.667 3.514,-3.514 9.698,-5.333 14.667,-5.333 4.969,0 11.153,1.82 14.667,5.333 3.514,3.514 5.333,9.698 5.333,14.667 0,4.969 -2.667,12 -5.333,14.667 -2.667,2.667 -5.333,4 -8,6.667 -2.667,2.667 -4,2.667 -6.667,5.333 -2.667,2.667 -4,4 -6.667,6.667 -2.667,2.667 -6.667,8 -9.333,13.333 -2.667,5.333 -4,13.333 -4,13.333 0,0 -1.333,-8 -4,-13.333 -2.667,-5.333 -6.667,-10.667 -9.333,-13.333 -2.667,-2.667 -4,-4 -6.667,-6.667 -2.667,-2.667 -4,-2.667 -6.667,-5.333 -2.667,-2.667 -5.333,-4 -8,-6.667 C 142.666,684.36 140,677.329 140,672.36 c 0,-4.969 1.82,-11.153 5.333,-14.667 3.514,-3.514 9.698,-5.333 14.667,-5.333 4.969,0 11.153,1.82 14.667,5.333 3.514,3.514 5.333,14.667 5.333,14.667"
           id="path570" />
      </g>
    </g>
    <g
       transform="matrix(0.26458333,0,0,0.26458333,60.067132,-53.58892)"
       id="g16169">
      <rect
         width="359"
         height="539"
         rx="29.944"
         x="0.5"
         y="512.85999"
         id="rect16143"
         style="fill:#ffffff;stroke:#000000" />
      <g
         id="g16167"
         style="fill:#ff5555">
        <path
           d="m 30,609.86 c 0,0 0.682,-4.182 2,-5.5 1.318,-1.318 3.637,-2 5.5,-2 1.863,0 4.182,0.682 5.5,2 1.318,1.318 2,3.637 2,5.5 0,1.863 -1,4.5 -2,5.5 -1,1 -2,1.5 -3,2.5 -1,1 -1.5,1 -2.5,2 -1,1 -1.5,1.5 -2.5,2.5 -1,1 -2.5,3 -3.5,5 -1,2 -1.5,5 -1.5,5 0,0 -0.5,-3 -1.5,-5 -1,-2 -2.5,-4 -3.5,-5 -1,-1 -1.5,-1.5 -2.5,-2.5 -1,-1 -1.5,-1 -2.5,-2 -1,-1 -2,-1.5 -3,-2.5 -1,-1 -2,-3.637 -2,-5.5 0,-1.863 0.682,-4.182 2,-5.5 1.318,-1.318 3.637,-2 5.5,-2 1.863,0 4.182,0.682 5.5,2 1.318,1.318 2,5.5 2,5.5"
           id="path16145" />
        <path
           d="m 330,954.86 c 0,0 0.682,4.182 2,5.5 1.318,1.318 3.637,2 5.5,2 1.863,0 4.182,-0.682 5.5,-2 1.318,-1.318 2,-3.637 2,-5.5 0,-1.863 -1,-4.5 -2,-5.5 -1,-1 -2,-1.5 -3,-2.5 -1,-1 -1.5,-1 -2.5,-2 -1,-1 -1.5,-1.5 -2.5,-2.5 -1,-1 -2.5,-3 -3.5,-5 -1,-2 -1.5,-5 -1.5,-5 0,0 -0.5,3 -1.5,5 -1,2 -2.5,4 -3.5,5 -1,1 -1.5,1.5 -2.5,2.5 -1,1 -1.5,1 -2.5,2 -1,1 -2,1.5 -3,2.5 -1,1 -2,3.637 -2,5.5 0,1.863 0.682,4.182 2,5.5 1.318,1.318 3.637,2 5.5,2 1.863,0 4.182,-0.682 5.5,-2 1.318,-1.318 2,-5.5 2,-5.5"
           id="path16147" />
        <path
           d="m 100,582.36 c 0,0 1.82,-11.153 5.333,-14.667 3.514,-3.514 9.698,-5.333 14.667,-5.333 4.969,0 11.153,1.82 14.667,5.333 3.514,3.514 5.333,9.698 5.333,14.667 0,4.969 -2.667,12 -5.333,14.667 -2.667,2.667 -5.333,4 -8,6.667 -2.667,2.667 -4,2.667 -6.667,5.333 -2.667,2.667 -4,4 -6.667,6.667 -2.667,2.667 -6.667,8 -9.333,13.333 -2.667,5.333 -4,13.333 -4,13.333 0,0 -1.333,-8 -4,-13.333 -2.667,-5.333 -6.667,-10.667 -9.333,-13.333 -2.667,-2.667 -4,-4 -6.667,-6.667 -2.667,-2.667 -4,-2.667 -6.667,-5.333 -2.667,-2.667 -5.333,-4 -8,-6.667 C 62.666,594.36 60,587.329 60,582.36 c 0,-4.969 1.82,-11.153 5.333,-14.667 3.514,-3.514 9.698,-5.333 14.667,-5.333 4.969,0 11.153,1.82 14.667,5.333 3.514,3.514 5.333,14.667 5.333,14.667"
           id="path16149" />
        <path
           d="m 100,982.36 c 0,0 1.82,11.153 5.333,14.667 3.514,3.514 9.698,5.333 14.667,5.333 4.969,0 11.153,-1.82 14.667,-5.333 3.514,-3.514 5.333,-9.698 5.333,-14.667 0,-4.969 -2.667,-12 -5.333,-14.667 -2.667,-2.667 -5.333,-4 -8,-6.667 -2.667,-2.667 -4,-2.667 -6.667,-5.333 -2.667,-2.667 -4,-4 -6.667,-6.667 -2.667,-2.667 -6.667,-8 -9.333,-13.333 -2.667,-5.333 -4,-13.333 -4,-13.333 0,0 -1.333,8 -4,13.333 -2.667,5.333 -6.667,10.667 -9.333,13.333 -2.667,2.667 -4,4 -6.667,6.667 -2.667,2.667 -4,2.667 -6.667,5.333 -2.667,2.667 -5.333,4 -8,6.667 C 62.666,970.36 60,977.391 60,982.36 c 0,4.969 1.82,11.153 5.333,14.667 3.514,3.514 9.698,5.333 14.667,5.333 4.969,0 11.153,-1.82 14.667,-5.333 C 98.181,993.513 100,982.36 100,982.36"
           id="path16151" />
        <path
           d="m 260,982.36 c 0,0 1.82,11.153 5.333,14.667 3.514,3.514 9.698,5.333 14.667,5.333 4.969,0 11.153,-1.82 14.667,-5.333 3.514,-3.514 5.333,-9.698 5.333,-14.667 0,-4.969 -2.667,-12 -5.333,-14.667 -2.667,-2.667 -5.333,-4 -8,-6.667 -2.667,-2.667 -4,-2.667 -6.667,-5.333 -2.667,-2.667 -4,-4 -6.667,-6.667 -2.667,-2.667 -6.667,-8 -9.333,-13.333 -2.667,-5.333 -4,-13.333 -4,-13.333 0,0 -1.333,8 -4,13.333 -2.667,5.333 -6.667,10.667 -9.333,13.333 -2.667,2.667 -4,4 -6.667,6.667 -2.667,2.667 -4,2.667 -6.667,5.333 -2.667,2.667 -5.333,4 -8,6.667 -2.667,2.667 -5.333,9.698 -5.333,14.667 0,4.969 1.82,11.153 5.333,14.667 3.514,3.514 9.698,5.333 14.667,5.333 4.969,0 11.153,-1.82 14.667,-5.333 C 258.181,993.513 260,982.36 260,982.36"
           id="path16153" />
        <path
           d="m 260,582.36 c 0,0 1.82,-11.153 5.333,-14.667 3.514,-3.514 9.698,-5.333 14.667,-5.333 4.969,0 11.153,1.82 14.667,5.333 3.514,3.514 5.333,9.698 5.333,14.667 0,4.969 -2.667,12 -5.333,14.667 -2.667,2.667 -5.333,4 -8,6.667 -2.667,2.667 -4,2.667 -6.667,5.333 -2.667,2.667 -4,4 -6.667,6.667 -2.667,2.667 -6.667,8 -9.333,13.333 -2.667,5.333 -4,13.333 -4,13.333 0,0 -1.333,-8 -4,-13.333 -2.667,-5.333 -6.667,-10.667 -9.333,-13.333 -2.667,-2.667 -4,-4 -6.667,-6.667 -2.667,-2.667 -4,-2.667 -6.667,-5.333 -2.667,-2.667 -5.333,-4 -8,-6.667 C 222.666,594.36 220,587.329 220,582.36 c 0,-4.969 1.82,-11.153 5.333,-14.667 3.514,-3.514 9.698,-5.333 14.667,-5.333 4.969,0 11.153,1.82 14.667,5.333 3.514,3.514 5.333,14.667 5.333,14.667"
           id="path16155" />
        <path
           d="m 260,762.36 c 0,0 1.82,-11.153 5.333,-14.667 3.514,-3.514 9.698,-5.333 14.667,-5.333 4.969,0 11.153,1.82 14.667,5.333 3.514,3.514 5.333,9.698 5.333,14.667 0,4.969 -2.667,12 -5.333,14.667 -2.667,2.667 -5.333,4 -8,6.667 -2.667,2.667 -4,2.667 -6.667,5.333 -2.667,2.667 -4,4 -6.667,6.667 -2.667,2.667 -6.667,8 -9.333,13.333 -2.667,5.333 -4,13.333 -4,13.333 0,0 -1.333,-8 -4,-13.333 -2.667,-5.333 -6.667,-10.667 -9.333,-13.333 -2.667,-2.667 -4,-4 -6.667,-6.667 -2.667,-2.667 -4,-2.667 -6.667,-5.333 -2.667,-2.667 -5.333,-4 -8,-6.667 C 222.666,774.36 220,767.329 220,762.36 c 0,-4.969 1.82,-11.153 5.333,-14.667 3.514,-3.514 9.698,-5.333 14.667,-5.333 4.969,0 11.153,1.82 14.667,5.333 3.514,3.514 5.333,14.667 5.333,14.667"
           id="path16157" />
        <path
           d="m 100,762.36 c 0,0 1.82,-11.153 5.333,-14.667 3.514,-3.514 9.698,-5.333 14.667,-5.333 4.969,0 11.153,1.82 14.667,5.333 3.514,3.514 5.333,9.698 5.333,14.667 0,4.969 -2.667,12 -5.333,14.667 -2.667,2.667 -5.333,4 -8,6.667 -2.667,2.667 -4,2.667 -6.667,5.333 -2.667,2.667 -4,4 -6.667,6.667 -2.667,2.667 -6.667,8 -9.333,13.333 -2.667,5.333 -4,13.333 -4,13.333 0,0 -1.333,-8 -4,-13.333 -2.667,-5.333 -6.667,-10.667 -9.333,-13.333 -2.667,-2.667 -4,-4 -6.667,-6.667 -2.667,-2.667 -4,-2.667 -6.667,-5.333 -2.667,-2.667 -5.333,-4 -8,-6.667 C 62.666,774.36 60,767.329 60,762.36 c 0,-4.969 1.82,-11.153 5.333,-14.667 3.514,-3.514 9.698,-5.333 14.667,-5.333 4.969,0 11.153,1.82 14.667,5.333 3.514,3.514 5.333,14.667 5.333,14.667"
           id="path16159" />
        <path
           d="m 20,542.36 v 5 5 h 5 v -5 h 10 l -10,45 h 5 l 10,-45 v -5 H 20"
           id="path16161" />
        <path
           d="m 340,1022.36 v -5 -5 h -5 v 5 h -10 l 10,-45 h -5 l -10,45 v 5 h 20"
           id="path16163" />
        <path
           d="m 180,672.36 c 0,0 1.82,-11.153 5.333,-14.667 3.514,-3.514 9.698,-5.333 14.667,-5.333 4.969,0 11.153,1.82 14.667,5.333 3.514,3.514 5.333,9.698 5.333,14.667 0,4.969 -2.667,12 -5.333,14.667 -2.667,2.667 -5.333,4 -8,6.667 -2.667,2.667 -4,2.667 -6.667,5.333 -2.667,2.667 -4,4 -6.667,6.667 -2.667,2.667 -6.667,8 -9.333,13.333 -2.667,5.333 -4,13.333 -4,13.333 0,0 -1.333,-8 -4,-13.333 -2.667,-5.333 -6.667,-10.667 -9.333,-13.333 -2.667,-2.667 -4,-4 -6.667,-6.667 -2.667,-2.667 -4,-2.667 -6.667,-5.333 -2.667,-2.667 -5.333,-4 -8,-6.667 C 142.666,684.36 140,677.329 140,672.36 c 0,-4.969 1.82,-11.153 5.333,-14.667 3.514,-3.514 9.698,-5.333 14.667,-5.333 4.969,0 11.153,1.82 14.667,5.333 3.514,3.514 5.333,14.667 5.333,14.667"
           id="path16165" />
      </g>
    </g>
  </g>
</svg>
