<?xml version="1.0" encoding="UTF-8" standalone="no"?>
<!-- Created with Inkscape (http://www.inkscape.org/) -->

<svg
   width="210mm"
   height="297mm"
   viewBox="0 0 210 297"
   version="1.1"
   id="svg27377"
   inkscape:version="1.2.2 (b0a84865, 2022-12-01)"
   sodipodi:docname="3D.svg"
   xmlns:inkscape="http://www.inkscape.org/namespaces/inkscape"
   xmlns:sodipodi="http://sodipodi.sourceforge.net/DTD/sodipodi-0.dtd"
   xmlns="http://www.w3.org/2000/svg"
   xmlns:svg="http://www.w3.org/2000/svg">
  <sodipodi:namedview
     id="namedview27379"
     pagecolor="#ffffff"
     bordercolor="#000000"
     borderopacity="0.25"
     inkscape:showpageshadow="2"
     inkscape:pageopacity="0.0"
     inkscape:pagecheckerboard="0"
     inkscape:deskcolor="#d1d1d1"
     inkscape:document-units="mm"
     showgrid="false"
     inkscape:zoom="0.78127806"
     inkscape:cx="396.78575"
     inkscape:cy="561.89982"
     inkscape:window-width="1390"
     inkscape:window-height="938"
     inkscape:window-x="0"
     inkscape:window-y="25"
     inkscape:window-maximized="0"
     inkscape:current-layer="layer1" />
  <defs
     id="defs27374" />
  <g
     inkscape:label="Layer 1"
     inkscape:groupmode="layer"
     id="layer1">
    <g
       transform="matrix(0.26458333,0,0,0.26458333,56.680592,-55.282193)"
       id="g120">
      <rect
         width="359"
         height="539"
         rx="29.944"
         x="0.5"
         y="512.85999"
         id="rect122"
         style="fill:#ffffff;stroke:#000000" />
      <g
         id="g124"
         style="fill:#ff5555">
        <path
           d="m 180,562.36 c 0,0 8,13.333 17.333,22.667 9.333,9.333 22.667,17.333 22.667,17.333 0,0 -13.333,8 -22.667,17.333 C 188,629.026 180,642.36 180,642.36 c 0,0 -8,-13.333 -17.333,-22.667 C 153.334,610.36 140,602.36 140,602.36 c 0,0 13.333,-8 22.667,-17.333 C 172,575.694 180,562.36 180,562.36"
           id="path126" />
        <path
           d="m 180,742.36 c 0,0 8,13.333 17.333,22.667 9.333,9.333 22.667,17.333 22.667,17.333 0,0 -13.333,8 -22.667,17.333 C 188,809.026 180,822.36 180,822.36 c 0,0 -8,-13.333 -17.333,-22.667 C 153.334,790.36 140,782.36 140,782.36 c 0,0 13.333,-8 22.667,-17.333 C 172,755.694 180,742.36 180,742.36"
           id="path128" />
        <path
           d="m 180,922.36 c 0,0 8,13.333 17.333,22.667 9.333,9.333 22.667,17.333 22.667,17.333 0,0 -13.333,8 -22.667,17.333 C 188,989.026 180,1002.36 180,1002.36 c 0,0 -8,-13.333 -17.333,-22.667 C 153.334,970.36 140,962.36 140,962.36 c 0,0 13.333,-8 22.667,-17.333 C 172,935.694 180,922.36 180,922.36"
           id="path130" />
        <path
           d="m 330,932.36 c 0,0 3,5 6.5,8.5 3.5,3.5 8.5,6.5 8.5,6.5 0,0 -5,3 -8.5,6.5 -3.5,3.5 -6.5,8.5 -6.5,8.5 0,0 -3,-5 -6.5,-8.5 -3.5,-3.5 -8.5,-6.5 -8.5,-6.5 0,0 5,-3 8.5,-6.5 3.5,-3.5 6.5,-8.5 6.5,-8.5"
           id="path132" />
        <path
           d="m 30,602.36 c 0,0 3,5 6.5,8.5 3.5,3.5 8.5,6.5 8.5,6.5 0,0 -5,3 -8.5,6.5 -3.5,3.5 -6.5,8.5 -6.5,8.5 0,0 -3,-5 -6.5,-8.5 -3.5,-3.5 -8.5,-6.5 -8.5,-6.5 0,0 5,-3 8.5,-6.5 3.5,-3.5 6.5,-8.5 6.5,-8.5"
           id="path134" />
        <path
           d="m 30,542.36 c -5.54,0 -10,4.46 -10,10 v 5 h 5 v -5 c 0,-2.77 2.23,-5 5,-5 2.77,0 5,2.23 5,5 v 5 c 0,2.77 -2.23,5 -5,5 h -5 v 5 h 5 c 2.77,0 5,2.23 5,5 v 10 c 0,2.77 -2.23,5 -5,5 -2.77,0 -5,-2.23 -5,-5 v -5 h -5 v 5 c 0,5.54 4.46,10 10,10 5.54,0 10,-4.46 10,-10 v -10 c 0,-3 -1.323,-5.67 -3.406,-7.5 2.083,-1.83 3.406,-4.496 3.406,-7.5 v -5 c 0,-5.54 -4.46,-10 -10,-10"
           id="path136" />
        <path
           d="m 330,1022.36 c 5.54,0 10,-4.46 10,-10 v -5 h -5 v 5 c 0,2.77 -2.23,5 -5,5 -2.77,0 -5,-2.23 -5,-5 v -5 c 0,-2.77 2.23,-5 5,-5 h 5 v -5 h -5 c -2.77,0 -5,-2.23 -5,-5 v -10 c 0,-2.77 2.23,-5 5,-5 2.77,0 5,2.23 5,5 v 5 h 5 v -5 c 0,-5.54 -4.46,-10 -10,-10 -5.54,0 -10,4.46 -10,10 v 10 c 0,3 1.323,5.67 3.406,7.5 -2.083,1.83 -3.406,4.496 -3.406,7.5 v 5 c 0,5.54 4.46,10 10,10"
           id="path138" />
      </g>
    </g>
  </g>
</svg>
