<?xml version="1.0" encoding="UTF-8" standalone="no"?>
<!-- Created with Inkscape (http://www.inkscape.org/) -->

<svg
   width="210mm"
   height="297mm"
   viewBox="0 0 210 297"
   version="1.1"
   id="svg27833"
   inkscape:version="1.2.2 (b0a84865, 2022-12-01)"
   sodipodi:docname="7D.svg"
   xmlns:inkscape="http://www.inkscape.org/namespaces/inkscape"
   xmlns:sodipodi="http://sodipodi.sourceforge.net/DTD/sodipodi-0.dtd"
   xmlns="http://www.w3.org/2000/svg"
   xmlns:svg="http://www.w3.org/2000/svg">
  <sodipodi:namedview
     id="namedview27835"
     pagecolor="#ffffff"
     bordercolor="#000000"
     borderopacity="0.25"
     inkscape:showpageshadow="2"
     inkscape:pageopacity="0.0"
     inkscape:pagecheckerboard="0"
     inkscape:deskcolor="#d1d1d1"
     inkscape:document-units="mm"
     showgrid="false"
     inkscape:zoom="0.78127806"
     inkscape:cx="396.78575"
     inkscape:cy="561.89982"
     inkscape:window-width="1390"
     inkscape:window-height="938"
     inkscape:window-x="0"
     inkscape:window-y="25"
     inkscape:window-maximized="0"
     inkscape:current-layer="layer1" />
  <defs
     id="defs27830" />
  <g
     inkscape:label="Layer 1"
     inkscape:groupmode="layer"
     id="layer1">
    <g
       transform="matrix(0.26458333,0,0,0.26458333,49.568842,-57.314119)"
       id="g428">
      <rect
         width="359"
         height="539"
         rx="29.944"
         x="0.5"
         y="512.85999"
         id="rect430"
         style="fill:#ffffff;stroke:#000000" />
      <g
         id="g432"
         style="fill:#ff5555">
        <path
           d="m 100,562.36 c 0,0 8,13.333 17.333,22.667 9.333,9.333 22.667,17.333 22.667,17.333 0,0 -13.333,8 -22.667,17.333 C 108,629.026 100,642.36 100,642.36 c 0,0 -8,-13.333 -17.333,-22.667 C 73.334,610.36 60,602.36 60,602.36 c 0,0 13.333,-8 22.667,-17.333 C 92,575.694 100,562.36 100,562.36"
           id="path434" />
        <path
           d="m 260,562.36 c 0,0 8,13.333 17.333,22.667 9.333,9.333 22.667,17.333 22.667,17.333 0,0 -13.333,8 -22.667,17.333 C 268,629.026 260,642.36 260,642.36 c 0,0 -8,-13.333 -17.333,-22.667 C 233.334,610.36 220,602.36 220,602.36 c 0,0 13.333,-8 22.667,-17.333 C 252,575.694 260,562.36 260,562.36"
           id="path436" />
        <path
           d="m 180,652.36 c 0,0 8,13.333 17.333,22.667 9.333,9.333 22.667,17.333 22.667,17.333 0,0 -13.333,8 -22.667,17.333 C 188,719.026 180,732.36 180,732.36 c 0,0 -8,-13.333 -17.333,-22.667 C 153.334,700.36 140,692.36 140,692.36 c 0,0 13.333,-8 22.667,-17.333 C 172,665.694 180,652.36 180,652.36"
           id="path438" />
        <path
           d="m 100,742.36 c 0,0 8,13.333 17.333,22.667 9.333,9.333 22.667,17.333 22.667,17.333 0,0 -13.333,8 -22.667,17.333 C 108,809.026 100,822.36 100,822.36 c 0,0 -8,-13.333 -17.333,-22.667 C 73.334,790.36 60,782.36 60,782.36 c 0,0 13.333,-8 22.667,-17.333 C 92,755.694 100,742.36 100,742.36"
           id="path440" />
        <path
           d="m 260,742.36 c 0,0 8,13.333 17.333,22.667 9.333,9.333 22.667,17.333 22.667,17.333 0,0 -13.333,8 -22.667,17.333 C 268,809.026 260,822.36 260,822.36 c 0,0 -8,-13.333 -17.333,-22.667 C 233.334,790.36 220,782.36 220,782.36 c 0,0 13.333,-8 22.667,-17.333 C 252,755.694 260,742.36 260,742.36"
           id="path442" />
        <path
           d="m 100,922.36 c 0,0 8,13.333 17.333,22.667 9.333,9.333 22.667,17.333 22.667,17.333 0,0 -13.333,8 -22.667,17.333 C 108,989.026 100,1002.36 100,1002.36 c 0,0 -8,-13.333 -17.333,-22.667 C 73.334,970.36 60,962.36 60,962.36 c 0,0 13.333,-8 22.667,-17.333 C 92,935.694 100,922.36 100,922.36"
           id="path444" />
        <path
           d="m 260,922.36 c 0,0 8,13.333 17.333,22.667 9.333,9.333 22.667,17.333 22.667,17.333 0,0 -13.333,8 -22.667,17.333 C 268,989.026 260,1002.36 260,1002.36 c 0,0 -8,-13.333 -17.333,-22.667 C 233.334,970.36 220,962.36 220,962.36 c 0,0 13.333,-8 22.667,-17.333 C 252,935.694 260,922.36 260,922.36"
           id="path446" />
        <path
           d="m 330,932.36 c 0,0 3,5 6.5,8.5 3.5,3.5 8.5,6.5 8.5,6.5 0,0 -5,3 -8.5,6.5 -3.5,3.5 -6.5,8.5 -6.5,8.5 0,0 -3,-5 -6.5,-8.5 -3.5,-3.5 -8.5,-6.5 -8.5,-6.5 0,0 5,-3 8.5,-6.5 3.5,-3.5 6.5,-8.5 6.5,-8.5"
           id="path448" />
        <path
           d="m 30,602.36 c 0,0 3,5 6.5,8.5 3.5,3.5 8.5,6.5 8.5,6.5 0,0 -5,3 -8.5,6.5 -3.5,3.5 -6.5,8.5 -6.5,8.5 0,0 -3,-5 -6.5,-8.5 -3.5,-3.5 -8.5,-6.5 -8.5,-6.5 0,0 5,-3 8.5,-6.5 3.5,-3.5 6.5,-8.5 6.5,-8.5"
           id="path450" />
        <path
           d="m 20,542.36 v 5 5 h 5 v -5 h 10 l -10,45 h 5 l 10,-45 v -5 H 20"
           id="path452" />
        <path
           d="m 340,1022.36 v -5 -5 h -5 v 5 h -10 l 10,-45 h -5 l -10,45 v 5 h 20"
           id="path454" />
      </g>
    </g>
  </g>
</svg>
